<svg width="1500" height="1500" viewBox="0 0 1500 1500" fill="none" xmlns="http://www.w3.org/2000/svg">
<rect width="1500" height="1500" fill="#D9D9D9"/>
<path d="M400.8 795.98C414.8 795.98 427.68 798.08 439.44 802.28C447.28 801.16 454.84 800.6 462.12 800.6C483.68 800.6 500.62 805.36 512.94 814.88C526.94 825.52 533.94 840.36 533.94 859.4C533.94 881.24 524.979 909.52 507.06 944.24C517.139 945.08 525.68 946.48 532.68 948.44C533.8 948.72 534.36 949.28 534.36 950.12C534.36 954.04 532.26 955.3 528.06 953.9C521.34 951.94 513.08 950.96 503.28 950.96C484.52 985.4 461.84 1017.04 435.24 1045.88C406.96 1075.84 381.76 1094.32 359.64 1101.32C359.08 1101.6 358.38 1101.74 357.54 1101.74C355.86 1101.74 355.02 1100.48 355.02 1097.96C355.02 1096.28 355.86 1095.16 357.54 1094.6C378.26 1087.88 401.08 1070.38 426 1042.1C448.68 1016.06 468.98 985.82 486.9 951.38L479.76 951.8C477.24 952.08 474.86 952.5 472.62 953.06C462.26 975.74 446.72 998.14 426 1020.26C422.92 1023.62 416.9 1029.5 407.94 1037.9L371.82 1071.08C370.98 1071.92 370.42 1071.78 370.14 1070.66C369.86 1069.54 370.14 1068.56 370.98 1067.72C382.74 1056.8 392.4 1047.56 399.96 1040C407.52 1032.44 413.26 1026.56 417.18 1022.36C437.62 999.68 453.16 977 463.8 954.32C438.32 958.8 413.96 966.64 390.72 977.84C366.36 989.88 349.28 1002.9 339.48 1016.9C339.48 1017.18 339.339 1017.32 339.06 1017.32C337.66 1017.32 336.68 1014.94 336.12 1010.18C336.12 1009.34 335.98 1008.5 335.7 1007.66V1005.56C335.7 1002.76 336.12 1000.94 336.96 1000.1C346.2 985.82 364.12 973.36 390.72 962.72C414.8 953.48 440.56 947.6 468 945.08C476.96 922.4 481.44 900 481.44 877.88C481.44 844.56 468.28 821.46 441.96 808.58C430.2 811.1 418.16 815.3 405.84 821.18C393.52 827.06 382.04 834.06 371.4 842.18C360.76 850.3 351.8 859.26 344.52 869.06C351.24 873.82 360.2 878.58 371.4 883.34C384.84 888.94 400.94 893 419.7 895.52C424.18 888.24 428.24 880.26 431.88 871.58C435.52 862.62 438.88 853.24 441.96 843.44C442.52 842.041 443.22 841.34 444.06 841.34C446.86 841.34 447.56 843.3 446.16 847.22C441.12 865.42 434.82 881.8 427.26 896.36C435.1 896.92 442.52 897.2 449.52 897.2C450.639 897.2 451.2 897.76 451.2 898.88C451.2 900 450.64 900.56 449.52 900.56C441.4 900.56 433.42 900.28 425.58 899.72C405.14 937.8 380.64 956.84 352.08 956.84C340.04 956.84 330.1 953.06 322.26 945.5C314.42 937.66 310.5 927.44 310.5 914.84C310.5 899.44 316.52 883.48 328.56 866.96L330.24 864.86C322.12 857.3 318.06 849.46 318.06 841.34C318.06 829.02 326.46 818.38 343.26 809.42C360.34 800.46 379.52 795.98 400.8 795.98ZM675.812 932.06C681.691 932.06 686.732 933.6 690.932 936.68C695.132 939.76 697.231 943.12 697.231 946.76C697.231 947.88 696.952 949 696.392 950.12C696.112 950.96 695.692 951.38 695.132 951.38C694.572 951.38 693.871 950.54 693.031 948.86C692.471 944.1 689.812 941.72 685.052 941.72C678.052 941.72 670.771 945.5 663.211 953.06C655.931 960.9 652.291 968.32 652.291 975.32C652.291 981.48 656.352 989.46 664.472 999.26C672.592 1008.78 676.651 1015.92 676.651 1020.68C676.651 1022.92 675.952 1025.72 674.552 1029.08C678.192 1027.4 682.671 1025.02 687.991 1021.94C693.591 1018.86 700.171 1015.08 707.731 1010.6C708.571 1011.16 705.351 1014.66 698.071 1021.1L671.191 1037.06C668.951 1040.98 663.072 1044.34 653.552 1047.14C644.872 1049.94 635.631 1051.34 625.831 1051.34C615.191 1051.34 609.871 1049.1 609.871 1044.62C609.871 1039.3 614.352 1036.36 623.312 1035.8C635.071 1035.24 649.631 1033.84 666.991 1031.6C669.231 1027.96 670.351 1024.74 670.352 1021.94C670.352 1017.46 667.131 1012.42 660.691 1006.82C645.291 993.38 637.592 980.5 637.592 968.18C637.592 963.98 638.571 960.06 640.531 956.42C650.051 940.18 661.812 932.06 675.812 932.06ZM1172.92 932.06C1178.8 932.06 1183.84 933.6 1188.04 936.68C1192.24 939.76 1194.34 943.12 1194.34 946.76C1194.34 947.88 1194.06 949 1193.5 950.12C1193.22 950.96 1192.8 951.38 1192.24 951.38C1191.68 951.38 1190.98 950.54 1190.14 948.86C1189.58 944.1 1186.92 941.72 1182.16 941.72C1175.16 941.72 1167.88 945.5 1160.32 953.06C1153.04 960.9 1149.4 968.32 1149.4 975.32C1149.4 981.48 1153.46 989.46 1161.58 999.26C1169.7 1008.78 1173.76 1015.92 1173.76 1020.68C1173.76 1022.92 1173.06 1025.72 1171.66 1029.08C1175.3 1027.4 1179.78 1025.02 1185.1 1021.94C1190.7 1018.86 1197.28 1015.08 1204.84 1010.6C1205.68 1011.16 1202.46 1014.66 1195.18 1021.1L1168.3 1037.06C1166.06 1040.98 1160.18 1044.34 1150.66 1047.14C1141.98 1049.94 1132.74 1051.34 1122.94 1051.34C1112.3 1051.34 1106.98 1049.1 1106.98 1044.62C1106.98 1039.3 1111.46 1036.36 1120.42 1035.8C1132.18 1035.24 1146.74 1033.84 1164.1 1031.6C1166.34 1027.96 1167.46 1024.74 1167.46 1021.94C1167.46 1017.46 1164.24 1012.42 1157.8 1006.82C1142.4 993.38 1134.7 980.5 1134.7 968.18C1134.7 963.98 1135.68 960.06 1137.64 956.42C1147.16 940.18 1158.92 932.06 1172.92 932.06ZM585.676 935.42C592.116 935.42 598.135 937.24 603.735 940.88C609.335 944.24 612.136 949.28 612.136 956C612.136 963.56 609.055 971.4 602.896 979.52H611.296C612.696 979.52 613.535 979.66 613.815 979.94C613.815 981.62 608.635 983.441 598.275 985.4C592.116 992.4 587.495 995.9 584.415 995.9C583.855 995.9 583.575 995.619 583.575 995.06C583.575 995.34 585.675 992.54 589.875 986.66C586.235 986.66 581.335 986.94 575.176 987.5C569.296 987.78 562.156 988.48 553.756 989.6C550.676 998 549.136 1005.84 549.136 1013.12C549.136 1022.36 551.655 1029.08 556.695 1033.28C559.775 1036.08 563.555 1037.48 568.035 1037.48H570.556C571.396 1037.48 572.235 1037.34 573.075 1037.06C590.995 1033.98 608.355 1023.62 625.155 1005.98C626.555 1004.02 627.676 1003.74 628.516 1005.14C628.796 1005.42 628.936 1005.84 628.936 1006.4C628.935 1007.52 628.095 1008.92 626.415 1010.6C620.535 1018.16 611.295 1025.58 598.695 1032.86C584.695 1040.98 572.095 1045.04 560.896 1045.04C552.496 1045.04 545.495 1042.52 539.896 1037.48C534.296 1032.16 531.495 1023.2 531.495 1010.6C531.495 1007.24 531.776 1003.6 532.336 999.68C534.856 985.4 540.736 971.82 549.976 958.94C561.456 943.26 573.356 935.42 585.676 935.42ZM759.913 878.72C762.153 878.72 764.673 880.68 767.473 884.6C770.273 888.239 771.673 891.74 771.673 895.1C771.673 896.22 771.533 897.06 771.253 897.62L750.673 938.78C754.313 938.5 757.533 938.36 760.333 938.36H769.153C785.112 938.36 793.232 939.62 793.513 942.14C793.513 943.26 786.793 944.38 773.354 945.5C769.714 945.78 766.493 946.06 763.693 946.34C760.893 946.34 758.373 946.62 756.133 947.18L748.153 948.44C745.073 948.44 740.733 960.06 735.133 983.3C730.093 1004.02 727.573 1016.34 727.573 1020.26C727.573 1028.66 730.653 1032.86 736.813 1032.86C741.574 1032.86 750.953 1029.08 764.953 1021.52C766.633 1020.4 768.733 1019 771.253 1017.32C773.773 1015.36 776.853 1012.98 780.493 1010.18C781.438 1009.38 782.325 1008.64 783.15 1007.97C783.219 1007.19 783.311 1006.39 783.43 1005.56C783.99 1001.92 784.83 997.44 785.95 992.12C787.07 986.8 788.61 980.5 790.57 973.22L797.29 949.28C797.57 947.32 800.37 946.34 805.689 946.34C812.129 946.34 815.35 947.88 815.35 950.96C815.35 954.6 814.37 958.52 812.41 962.72C810.17 968.6 807.65 971.68 804.85 971.96C803.45 972.521 801.35 984.561 798.55 1008.08C797.99 1012 797.71 1015.08 797.71 1017.32C797.71 1026 799.95 1030.34 804.43 1030.34C807.79 1030.34 812.27 1027.96 817.87 1023.2L843.49 1001.78C844.61 1000.94 845.45 1000.8 846.01 1001.36C846.239 1001.44 846.414 1001.56 846.539 1001.72C847.43 998.714 848.442 995.515 849.573 992.12C854.053 977 856.153 968.04 855.873 965.24C854.473 959.64 852.513 956.42 849.993 955.58C847.473 954.74 849.153 950.12 855.033 941.72C855.873 940.32 858.253 939.62 862.173 939.62C871.413 939.62 876.033 941.16 876.033 944.24C876.033 949 873.374 961.88 868.054 982.88C862.734 1003.32 860.073 1016.9 860.073 1023.62C860.073 1028.66 861.753 1031.18 865.113 1031.18C872.953 1031.18 884.013 1022.64 898.293 1005.56C914.253 986.24 922.793 970.98 923.913 959.78C917.753 953.34 914.673 946.06 914.673 937.94C914.673 930.38 917.053 926.6 921.813 926.6C928.253 926.6 931.474 932.76 931.474 945.08C931.474 950.68 931.193 954.88 930.633 957.68C934.553 959.92 938.194 961.04 941.554 961.04C945.473 961.04 948.693 959.78 951.213 957.26C952.893 957.82 953.733 958.66 953.733 959.78C953.733 962.86 951.913 964.96 948.273 966.08C945.753 966.92 943.233 967.34 940.713 967.34C936.513 967.34 932.733 966.079 929.373 963.56C929.373 967.48 926.993 974.2 922.233 983.72C919.433 989.04 916.353 993.94 912.993 998.42C909.913 1002.9 906.553 1007.1 902.913 1011.02C884.713 1030.9 869.033 1040.84 855.873 1040.84C846.353 1040.84 841.594 1036.22 841.594 1026.98C841.594 1021.86 842.909 1014.6 845.539 1005.19C840.608 1012.16 832.086 1020.12 819.97 1029.08C810.45 1036.08 802.61 1039.58 796.45 1039.58C787.532 1039.58 783.053 1031.81 783.012 1016.28C779.701 1019.05 775.502 1022.2 770.413 1025.72C755.293 1036.64 742.973 1042.1 733.453 1042.1C729.813 1042.1 726.733 1041.68 724.213 1040.84C721.693 1040.28 719.733 1039.58 718.333 1038.74C714.973 1036.22 713.293 1031.46 713.293 1024.46C713.293 1022.22 713.433 1019.7 713.713 1016.9C714.273 1014.1 714.834 1010.88 715.394 1007.24C716.514 1000.52 720.153 988.48 726.313 971.12C727.713 967.48 728.833 964.26 729.673 961.46C730.793 958.66 731.633 956.28 732.193 954.32L734.293 948.86C728.133 948.86 717.773 950.12 703.213 952.64H702.793C701.673 952.64 701.113 951.24 701.113 948.44C701.113 945.08 702.374 942.98 704.894 942.14C706.855 941.3 717.635 940.18 737.233 938.78C739.473 931.5 742.133 923.1 745.213 913.58C748.573 903.78 752.353 893 756.553 881.24C756.833 879.56 757.953 878.72 759.913 878.72ZM1150.65 821.18C1159.89 821.18 1164.51 825.94 1164.51 835.46C1164.51 856.18 1154.57 879.7 1134.69 906.02C1123.49 920.02 1105.57 939.34 1080.93 963.98C1074.49 985.82 1071.27 1003.18 1071.27 1016.06C1071.27 1028.38 1075.47 1034.54 1083.87 1034.54C1090.31 1034.54 1098.01 1032.02 1106.97 1026.98C1115.93 1021.94 1122.93 1016.2 1127.97 1009.76C1129.93 1007.24 1131.47 1005.98 1132.59 1005.98C1133.15 1005.98 1133.43 1006.54 1133.43 1007.66C1133.43 1010.74 1132.59 1013.26 1130.91 1015.22C1125.87 1021.1 1118.17 1026.84 1107.81 1032.44C1095.77 1038.88 1086.11 1042.1 1078.83 1042.1C1067.8 1042.1 1061.12 1036.02 1058.78 1023.85C1057.52 1024.97 1056.14 1026.16 1054.66 1027.4C1043.74 1036.64 1033.66 1041.26 1024.42 1041.26C1021.9 1041.26 1019.38 1040.84 1016.86 1040C1009.58 1037.48 1004.82 1029.64 1002.58 1016.48C1002.02 1012.84 1001.46 1009.76 1000.9 1007.24C1000.62 1004.72 1000.48 1002.62 1000.48 1000.94V998.84C998.801 1002.2 993.901 1009.2 985.781 1019.84C973.741 1035.52 963.941 1042.8 956.381 1041.68C947.421 1040.28 942.941 1033.98 942.941 1022.78C942.941 1005.7 950.781 986.8 966.461 966.08C982.701 944.24 999.501 933.32 1016.86 933.32C1022.74 933.32 1028.06 934.72 1032.82 937.52C1037.86 940.04 1040.38 944.1 1040.38 949.7C1040.38 956.14 1037.72 959.78 1032.4 960.62C1034.08 957.82 1034.92 955.02 1034.92 952.22C1034.92 946.06 1031.42 942.98 1024.42 942.98C1017.7 942.981 1010.42 946.34 1002.58 953.06C983.261 969.58 969.121 988.76 960.161 1010.6C957.361 1017.32 955.961 1022.92 955.961 1027.4C955.961 1031.04 957.221 1032.86 959.741 1032.86C962.541 1032.86 967.441 1029.64 974.441 1023.2C979.201 1018.72 989.561 1005.14 1005.52 982.46C1009.72 976.58 1013.08 973.64 1015.6 973.64C1017.84 973.64 1018.96 979.521 1018.96 991.28V1014.8C1021.48 1027.12 1025.82 1033.28 1031.98 1033.28C1035.34 1033.28 1039.4 1032.16 1044.16 1029.92C1048.94 1027.53 1053.58 1023.89 1058.1 1018.99C1057.92 1017.02 1057.83 1014.92 1057.83 1012.7C1057.83 1004.58 1059.09 994.36 1061.61 982.04H1060.35C1058.39 982.04 1057.41 981.34 1057.41 979.94C1057.41 977.7 1059.93 973.78 1064.97 968.18C1081.49 898.46 1103.61 851.98 1131.33 828.74C1137.49 823.7 1143.93 821.18 1150.65 821.18ZM594.495 947.6C588.895 947.6 582.735 950.96 576.016 957.68C572.096 961.6 568.596 965.52 565.516 969.44C562.436 973.08 559.915 976.86 557.955 980.78C561.875 980.5 566.915 980.36 573.075 980.36L594.075 979.94C597.155 973.781 599.115 968.88 599.955 965.24C600.795 961.6 601.216 958.66 601.216 956.42C601.216 950.54 598.975 947.6 594.495 947.6ZM1152.33 827.48C1147.57 827.481 1142.11 831.4 1135.95 839.24C1132.03 844 1127.55 850.86 1122.51 859.82C1117.47 868.5 1111.87 879.56 1105.71 893C1100.11 905.32 1095.35 916.66 1091.43 927.02C1087.51 937.1 1084.43 946.34 1082.19 954.74C1097.31 940.74 1112.57 923.1 1127.97 901.82C1147.57 874.661 1157.65 853.66 1158.21 838.82V837.56C1158.21 830.84 1156.25 827.48 1152.33 827.48ZM341.16 873.68C329.96 889.08 324.36 903.64 324.36 917.36C324.36 926.6 327.02 933.88 332.34 939.2C337.66 944.52 344.66 947.18 353.34 947.18C376.58 947.18 398 931.08 417.6 898.88C396.88 896.64 380.22 892.86 367.62 887.54C356.98 883.06 348.16 878.44 341.16 873.68ZM465.9 806.06C460.581 806.06 455.26 806.48 449.94 807.32C475.7 821.32 488.58 845.12 488.58 878.72C488.58 901.4 484.52 923.24 476.4 944.24C478.64 943.96 481.02 943.82 483.54 943.82H490.68C509.16 906.581 518.4 876.76 518.4 854.36C518.4 822.16 500.9 806.06 465.9 806.06ZM830.47 911.06C832.15 911.06 832.99 911.62 832.99 912.74C832.99 914.42 831.17 917.22 827.53 921.14C823.89 925.06 820.95 927.44 818.71 928.28C818.43 928.28 818.01 928.42 817.45 928.7H816.189C813.95 928.7 811.57 928.28 809.05 927.44C806.81 926.32 805.689 925.34 805.689 924.5C805.689 923.94 805.83 923.52 806.109 923.24C815.909 915.12 824.03 911.06 830.47 911.06ZM399.96 799.76C380.92 799.76 363.7 803.82 348.3 811.94C333.18 820.06 325.62 829.72 325.62 840.92C325.62 847.08 328.42 853.38 334.02 859.82C356.98 831.54 389.04 812.92 430.2 803.96C420.96 801.16 410.88 799.76 399.96 799.76ZM336.275 398C356.202 398 373.671 401.235 388.681 407.705C403.69 413.916 415.854 421.421 425.17 430.22C434.486 438.76 440.956 446.653 444.579 453.899V407.316H561.812V726.019H445.744V674.39C443.415 679.565 437.463 687.07 427.888 696.904C418.571 706.738 406.149 715.667 390.621 723.689C375.094 731.453 356.978 735.335 336.275 735.335C305.221 735.335 278.047 727.83 254.756 712.82C231.465 697.552 213.349 677.236 200.409 651.875C187.47 626.255 181 597.916 181 566.861C181 535.806 187.47 507.598 200.409 482.236C213.349 456.616 231.465 436.172 254.756 420.903C278.047 405.635 305.22 398 336.275 398ZM698.029 554.828C698.029 580.19 702.817 600.505 712.393 615.773C721.968 630.783 738.013 638.288 760.527 638.288C783.56 638.288 799.734 630.783 809.051 615.773C818.626 600.505 823.414 580.19 823.414 554.828V407.316H939.87V567.25C939.87 601.41 932.753 631.172 918.52 656.533C904.545 681.636 884.23 701.045 857.574 714.761C830.919 728.477 798.57 735.335 760.527 735.335C722.744 735.335 690.525 728.477 663.869 714.761C637.214 701.045 616.899 681.636 602.924 656.533C588.949 631.172 581.961 601.41 581.961 567.25V407.316H698.029V554.828ZM1180.43 398C1202.69 398 1224.43 402.529 1245.65 411.587C1266.87 420.645 1284.34 435.008 1298.05 454.676C1311.77 474.085 1318.63 499.705 1318.63 531.536V726.019H1200.23V550.946C1200.23 528.173 1194.79 511.092 1183.92 499.705C1173.06 488.06 1158.82 482.236 1141.22 482.236C1129.58 482.236 1118.58 485.342 1108.23 491.553C1098.14 497.505 1089.85 506.046 1083.38 517.174C1077.17 528.043 1074.07 540.595 1074.07 554.828V726.019H956.059V407.316H1074.07V454.287C1077.17 445.747 1083.64 437.207 1093.48 428.667C1103.57 419.868 1116.12 412.622 1131.13 406.929C1146.4 400.977 1162.83 398 1180.43 398ZM371.212 490.776C357.496 490.776 344.944 494.142 333.558 500.87C322.43 507.34 313.501 516.397 306.772 528.043C300.044 539.43 296.68 552.369 296.68 566.861C296.68 581.354 300.044 594.423 306.772 606.068C313.501 617.455 322.43 626.384 333.558 632.854C344.944 639.323 357.496 642.559 371.212 642.559C385.445 642.559 397.997 639.323 408.866 632.854C419.735 626.384 428.275 617.455 434.486 606.068C440.956 594.423 444.191 581.354 444.191 566.861C444.191 552.369 440.956 539.43 434.486 528.043C428.275 516.397 419.735 507.34 408.866 500.87C397.997 494.142 385.445 490.776 371.212 490.776Z" fill="url(#paint0_linear_1674_13377)"/>
<defs>
<linearGradient id="paint0_linear_1674_13377" x1="0.500002" y1="322.5" x2="1712.5" y2="827.5" gradientUnits="userSpaceOnUse">
<stop stop-color="#E1E1E1"/>
<stop offset="0.372872" stop-color="#7E7E7E"/>
<stop offset="1" stop-color="#E1E1E1"/>
</linearGradient>
</defs>
</svg>
