<svg width="2095" height="338" viewBox="0 0 2095 338" fill="none" xmlns="http://www.w3.org/2000/svg">
<path d="M155.275 0C175.202 4.19811e-05 192.671 3.23533 207.681 9.70508C222.69 15.916 234.854 23.4209 244.17 32.2197C253.486 40.7598 259.956 48.6533 263.579 55.8994V9.31641H380.812V328.019H264.744V276.39C262.415 281.565 256.463 289.07 246.888 298.904C237.571 308.738 225.149 317.667 209.621 325.689C194.094 333.453 175.978 337.335 155.275 337.335C124.221 337.335 97.047 329.83 73.7559 314.82C50.4647 299.552 32.3488 279.236 19.4092 253.875C6.4696 228.255 0 199.916 0 168.861C3.29628e-05 137.806 6.46963 109.598 19.4092 84.2363C32.3488 58.616 50.4647 38.172 73.7559 22.9033C97.0471 7.63463 124.22 0 155.275 0ZM517.029 156.828C517.029 182.19 521.817 202.505 531.393 217.773C540.968 232.783 557.013 240.288 579.527 240.288C602.56 240.288 618.734 232.783 628.051 217.773C637.626 202.505 642.414 182.19 642.414 156.828V9.31641H758.87V169.25C758.87 203.41 751.753 233.172 737.52 258.533C723.545 283.636 703.23 303.045 676.574 316.761C649.919 330.477 617.57 337.335 579.527 337.335C541.744 337.335 509.525 330.477 482.869 316.761C456.214 303.045 435.899 283.636 421.924 258.533C407.949 233.172 400.961 203.41 400.961 169.25V9.31641H517.029V156.828ZM999.432 0C1021.69 6.05542e-05 1043.43 4.52929 1064.65 13.5869C1085.87 22.6446 1103.34 37.0076 1117.05 56.6758C1130.77 76.0851 1137.63 101.705 1137.63 133.536V328.019H1019.23V152.946C1019.23 130.173 1013.79 113.092 1002.92 101.705C992.056 90.0596 977.822 84.2364 960.225 84.2363C948.579 84.2363 937.58 87.3419 927.229 93.5527C917.136 99.5049 908.855 108.046 902.385 119.174C896.174 130.043 893.067 142.595 893.067 156.828V328.019H775.059V9.31641H893.067V56.2871C896.173 47.747 902.643 39.2071 912.478 30.667C922.57 21.8681 935.122 14.6221 950.132 8.92871C965.4 2.97657 981.834 0 999.432 0ZM1290.8 21.9805C1304.8 21.9805 1317.68 24.0803 1329.44 28.2803C1337.28 27.1603 1344.84 26.5996 1352.12 26.5996C1373.68 26.5996 1390.62 31.3599 1402.94 40.8799C1416.94 51.5199 1423.94 66.3605 1423.94 85.4004C1423.94 107.24 1414.98 135.52 1397.06 170.24C1407.14 171.08 1415.68 172.48 1422.68 174.44C1423.8 174.72 1424.36 175.28 1424.36 176.12C1424.36 180.04 1422.26 181.3 1418.06 179.9C1411.34 177.94 1403.08 176.96 1393.28 176.96C1374.52 211.4 1351.84 243.04 1325.24 271.88C1296.96 301.84 1271.76 320.32 1249.64 327.32C1249.08 327.6 1248.38 327.74 1247.54 327.74C1245.86 327.74 1245.02 326.48 1245.02 323.96C1245.02 322.28 1245.86 321.16 1247.54 320.6C1268.26 313.88 1291.08 296.38 1316 268.1C1338.68 242.06 1358.98 211.82 1376.9 177.38L1369.76 177.8C1367.24 178.08 1364.86 178.5 1362.62 179.06C1352.26 201.74 1336.72 224.14 1316 246.26C1312.92 249.62 1306.9 255.5 1297.94 263.9L1261.82 297.08C1260.98 297.92 1260.42 297.78 1260.14 296.66C1259.86 295.54 1260.14 294.56 1260.98 293.72C1272.74 282.8 1282.4 273.56 1289.96 266C1297.52 258.44 1303.26 252.56 1307.18 248.36C1327.62 225.68 1343.16 203 1353.8 180.32C1328.32 184.8 1303.96 192.64 1280.72 203.84C1256.36 215.88 1239.28 228.9 1229.48 242.9C1229.48 243.18 1229.34 243.32 1229.06 243.32C1227.66 243.32 1226.68 240.939 1226.12 236.18C1226.12 235.34 1225.98 234.5 1225.7 233.66V231.56C1225.7 228.76 1226.12 226.94 1226.96 226.1C1236.2 211.82 1254.12 199.36 1280.72 188.72C1304.8 179.48 1330.56 173.6 1358 171.08C1366.96 148.4 1371.44 126 1371.44 103.88C1371.44 70.5599 1358.28 47.4601 1331.96 34.5801C1320.2 37.1001 1308.16 41.2997 1295.84 47.1797C1283.52 53.0596 1272.04 60.0598 1261.4 68.1797C1250.76 76.2997 1241.8 85.2596 1234.52 95.0596C1241.24 99.8196 1250.2 104.58 1261.4 109.34C1274.84 114.94 1290.94 119 1309.7 121.52C1314.18 114.24 1318.24 106.26 1321.88 97.5801C1325.52 88.6202 1328.88 79.2403 1331.96 69.4404C1332.52 68.0407 1333.22 67.3401 1334.06 67.3398C1336.86 67.3398 1337.56 69.2999 1336.16 73.2197C1331.12 91.4197 1324.82 107.8 1317.26 122.36C1325.1 122.92 1332.52 123.2 1339.52 123.2C1340.64 123.2 1341.2 123.76 1341.2 124.88C1341.2 126 1340.64 126.56 1339.52 126.56C1331.4 126.56 1323.42 126.28 1315.58 125.72C1295.14 163.8 1270.64 182.84 1242.08 182.84C1230.04 182.84 1220.1 179.06 1212.26 171.5C1204.42 163.66 1200.5 153.44 1200.5 140.84C1200.5 125.44 1206.52 109.48 1218.56 92.96L1220.24 90.8604C1212.12 83.3003 1208.06 75.4598 1208.06 67.3398C1208.06 55.0199 1216.46 44.3799 1233.26 35.4199C1250.34 26.4599 1269.52 21.9805 1290.8 21.9805ZM1565.81 158.06C1571.69 158.06 1576.73 159.6 1580.93 162.68C1585.13 165.76 1587.23 169.12 1587.23 172.76C1587.23 173.88 1586.95 175 1586.39 176.12C1586.11 176.96 1585.69 177.38 1585.13 177.38C1584.57 177.38 1583.87 176.54 1583.03 174.86C1582.47 170.1 1579.81 167.72 1575.05 167.72C1568.05 167.72 1560.77 171.5 1553.21 179.06C1545.93 186.9 1542.29 194.32 1542.29 201.32C1542.29 207.48 1546.35 215.46 1554.47 225.26C1562.59 234.78 1566.65 241.92 1566.65 246.68C1566.65 248.92 1565.95 251.72 1564.55 255.08C1568.19 253.4 1572.67 251.02 1577.99 247.94C1583.59 244.86 1590.17 241.08 1597.73 236.6C1598.57 237.16 1595.35 240.66 1588.07 247.1L1561.19 263.06C1558.95 266.98 1553.07 270.34 1543.55 273.14C1534.87 275.94 1525.63 277.34 1515.83 277.34C1505.19 277.34 1499.87 275.1 1499.87 270.62C1499.87 265.3 1504.35 262.36 1513.31 261.8C1525.07 261.24 1539.63 259.84 1556.99 257.6C1559.23 253.96 1560.35 250.74 1560.35 247.94C1560.35 243.46 1557.13 238.42 1550.69 232.82C1535.29 219.38 1527.59 206.5 1527.59 194.18C1527.59 189.98 1528.57 186.06 1530.53 182.42C1540.05 166.18 1551.81 158.06 1565.81 158.06ZM2062.92 158.06C2068.8 158.06 2073.84 159.6 2078.04 162.68C2082.24 165.76 2084.34 169.12 2084.34 172.76C2084.34 173.88 2084.06 175 2083.5 176.12C2083.22 176.96 2082.8 177.38 2082.24 177.38C2081.68 177.38 2080.98 176.54 2080.14 174.86C2079.58 170.1 2076.92 167.72 2072.16 167.72C2065.16 167.72 2057.88 171.5 2050.32 179.06C2043.04 186.9 2039.4 194.32 2039.4 201.32C2039.4 207.48 2043.46 215.46 2051.58 225.26C2059.7 234.78 2063.76 241.92 2063.76 246.68C2063.76 248.92 2063.06 251.72 2061.66 255.08C2065.3 253.4 2069.78 251.02 2075.1 247.94C2080.7 244.86 2087.28 241.08 2094.84 236.6C2095.68 237.16 2092.46 240.66 2085.18 247.1L2058.3 263.06C2056.06 266.98 2050.18 270.34 2040.66 273.14C2031.98 275.94 2022.74 277.34 2012.94 277.34C2002.3 277.34 1996.98 275.1 1996.98 270.62C1996.98 265.3 2001.46 262.36 2010.42 261.8C2022.18 261.24 2036.74 259.84 2054.1 257.6C2056.34 253.96 2057.46 250.74 2057.46 247.94C2057.46 243.46 2054.24 238.42 2047.8 232.82C2032.4 219.38 2024.7 206.5 2024.7 194.18C2024.7 189.98 2025.68 186.06 2027.64 182.42C2037.16 166.18 2048.92 158.06 2062.92 158.06ZM1475.68 161.42C1482.12 161.42 1488.14 163.24 1493.74 166.88C1499.34 170.24 1502.14 175.28 1502.14 182C1502.14 189.56 1499.06 197.4 1492.9 205.52H1501.3C1502.7 205.52 1503.54 205.66 1503.82 205.94C1503.81 207.62 1498.63 209.441 1488.28 211.4C1482.12 218.4 1477.5 221.9 1474.42 221.9C1473.86 221.9 1473.58 221.619 1473.58 221.06C1473.58 221.34 1475.68 218.54 1479.88 212.66C1476.24 212.66 1471.34 212.94 1465.18 213.5C1459.3 213.78 1452.16 214.48 1443.76 215.6C1440.68 224 1439.14 231.84 1439.14 239.12C1439.14 248.36 1441.66 255.08 1446.7 259.28C1449.78 262.08 1453.56 263.48 1458.04 263.48H1460.56C1461.4 263.48 1462.24 263.34 1463.08 263.06C1481 259.98 1498.36 249.62 1515.16 231.98C1516.56 230.021 1517.68 229.74 1518.52 231.14C1518.8 231.42 1518.94 231.84 1518.94 232.4C1518.94 233.52 1518.09 234.92 1516.42 236.6C1510.54 244.16 1501.3 251.58 1488.7 258.86C1474.7 266.98 1462.1 271.04 1450.9 271.04C1442.5 271.04 1435.5 268.52 1429.9 263.48C1424.3 258.16 1421.5 249.2 1421.5 236.6C1421.5 233.24 1421.78 229.6 1422.34 225.68C1424.86 211.4 1430.74 197.82 1439.98 184.94C1451.46 169.26 1463.36 161.42 1475.68 161.42ZM1649.91 104.72C1652.15 104.72 1654.67 106.68 1657.47 110.6C1660.27 114.239 1661.67 117.74 1661.67 121.1C1661.67 122.22 1661.53 123.06 1661.25 123.62L1640.67 164.78C1644.31 164.5 1647.53 164.36 1650.33 164.36H1659.15C1675.11 164.36 1683.23 165.62 1683.51 168.14C1683.51 169.26 1676.79 170.38 1663.35 171.5C1659.71 171.78 1656.49 172.06 1653.69 172.34C1650.89 172.34 1648.37 172.62 1646.13 173.18L1638.15 174.44C1635.07 174.44 1630.73 186.06 1625.13 209.3C1620.09 230.019 1617.57 242.34 1617.57 246.26C1617.57 254.66 1620.65 258.86 1626.81 258.86C1631.57 258.86 1640.95 255.079 1654.95 247.52C1656.63 246.4 1658.73 245 1661.25 243.32C1663.77 241.36 1666.85 238.98 1670.49 236.18C1671.44 235.376 1672.32 234.642 1673.15 233.974C1673.22 233.194 1673.31 232.389 1673.43 231.56C1673.99 227.92 1674.83 223.44 1675.95 218.12C1677.07 212.8 1678.61 206.5 1680.57 199.22L1687.29 175.28C1687.57 173.32 1690.37 172.34 1695.69 172.34C1702.13 172.34 1705.35 173.88 1705.35 176.96C1705.35 180.6 1704.37 184.52 1702.41 188.72C1700.17 194.6 1697.65 197.68 1694.85 197.96C1693.45 198.521 1691.35 210.561 1688.55 234.08C1687.99 238 1687.71 241.08 1687.71 243.32C1687.71 252 1689.95 256.34 1694.43 256.34C1697.79 256.34 1702.27 253.96 1707.87 249.2L1733.49 227.78C1734.61 226.94 1735.45 226.8 1736.01 227.36C1736.24 227.437 1736.41 227.556 1736.54 227.716C1737.43 224.714 1738.44 221.515 1739.57 218.12C1744.05 203 1746.15 194.04 1745.87 191.24C1744.47 185.64 1742.51 182.42 1739.99 181.58C1737.47 180.74 1739.15 176.12 1745.03 167.72C1745.87 166.32 1748.25 165.62 1752.17 165.62C1761.41 165.62 1766.03 167.16 1766.03 170.24C1766.03 175 1763.37 187.88 1758.05 208.88C1752.73 229.32 1750.07 242.9 1750.07 249.62C1750.07 254.66 1751.75 257.18 1755.11 257.18C1762.95 257.18 1774.01 248.64 1788.29 231.56C1804.25 212.24 1812.79 196.98 1813.91 185.78C1807.75 179.34 1804.67 172.06 1804.67 163.94C1804.67 156.38 1807.05 152.6 1811.81 152.6C1818.25 152.6 1821.47 158.76 1821.47 171.08C1821.47 176.68 1821.19 180.88 1820.63 183.68C1824.55 185.92 1828.19 187.04 1831.55 187.04C1835.47 187.04 1838.69 185.78 1841.21 183.26C1842.89 183.82 1843.73 184.66 1843.73 185.78C1843.73 188.86 1841.91 190.96 1838.27 192.08C1835.75 192.92 1833.23 193.34 1830.71 193.34C1826.51 193.34 1822.73 192.079 1819.37 189.56C1819.37 193.48 1816.99 200.2 1812.23 209.72C1809.43 215.04 1806.35 219.94 1802.99 224.42C1799.91 228.9 1796.55 233.1 1792.91 237.02C1774.71 256.9 1759.03 266.84 1745.87 266.84C1736.35 266.84 1731.59 262.22 1731.59 252.98C1731.59 247.862 1732.91 240.597 1735.54 231.187C1730.61 238.16 1722.09 246.125 1709.97 255.08C1700.45 262.08 1692.61 265.58 1686.45 265.58C1677.53 265.58 1673.05 257.813 1673.01 242.278C1669.7 245.049 1665.5 248.196 1660.41 251.72C1645.29 262.64 1632.97 268.1 1623.45 268.1C1619.81 268.1 1616.73 267.68 1614.21 266.84C1611.69 266.28 1609.73 265.58 1608.33 264.74C1604.97 262.22 1603.29 257.46 1603.29 250.46C1603.29 248.22 1603.43 245.7 1603.71 242.9C1604.27 240.1 1604.83 236.88 1605.39 233.24C1606.51 226.52 1610.15 214.48 1616.31 197.12C1617.71 193.48 1618.83 190.26 1619.67 187.46C1620.79 184.66 1621.63 182.28 1622.19 180.32L1624.29 174.86C1618.13 174.86 1607.77 176.12 1593.21 178.64H1592.79C1591.67 178.64 1591.11 177.24 1591.11 174.44C1591.11 171.08 1592.37 168.98 1594.89 168.14C1596.85 167.3 1607.64 166.18 1627.23 164.78C1629.47 157.5 1632.13 149.1 1635.21 139.58C1638.57 129.78 1642.35 119 1646.55 107.24C1646.83 105.56 1647.95 104.72 1649.91 104.72ZM2040.65 47.1797C2049.89 47.1797 2054.51 51.94 2054.51 61.46C2054.51 82.1799 2044.57 105.7 2024.69 132.02C2013.49 146.02 1995.57 165.34 1970.93 189.98C1964.49 211.82 1961.27 229.18 1961.27 242.06C1961.27 254.379 1965.47 260.54 1973.87 260.54C1980.31 260.54 1988.01 258.02 1996.97 252.98C2005.93 247.94 2012.93 242.2 2017.97 235.76C2019.93 233.24 2021.47 231.981 2022.59 231.98C2023.15 231.98 2023.43 232.54 2023.43 233.66C2023.43 236.74 2022.59 239.26 2020.91 241.22C2015.87 247.1 2008.17 252.84 1997.81 258.44C1985.77 264.88 1976.11 268.1 1968.83 268.1C1957.8 268.1 1951.12 262.016 1948.78 249.849C1947.52 250.97 1946.14 252.156 1944.66 253.4C1933.74 262.64 1923.66 267.26 1914.42 267.26C1911.9 267.26 1909.38 266.84 1906.86 266C1899.58 263.48 1894.82 255.64 1892.58 242.48C1892.02 238.841 1891.46 235.76 1890.9 233.24C1890.62 230.72 1890.48 228.62 1890.48 226.94V224.84C1888.8 228.2 1883.9 235.2 1875.78 245.84C1863.74 261.52 1853.94 268.8 1846.38 267.68C1837.42 266.28 1832.94 259.98 1832.94 248.78C1832.94 231.7 1840.78 212.8 1856.46 192.08C1872.7 170.24 1889.5 159.32 1906.86 159.32C1912.74 159.32 1918.06 160.72 1922.82 163.52C1927.86 166.04 1930.38 170.1 1930.38 175.7C1930.38 182.14 1927.72 185.78 1922.4 186.62C1924.08 183.82 1924.92 181.02 1924.92 178.22C1924.92 172.06 1921.42 168.98 1914.42 168.98C1907.7 168.981 1900.42 172.34 1892.58 179.06C1873.26 195.58 1859.12 214.76 1850.16 236.6C1847.36 243.32 1845.96 248.92 1845.96 253.4C1845.96 257.04 1847.22 258.86 1849.74 258.86C1852.54 258.86 1857.44 255.64 1864.44 249.2C1869.2 244.72 1879.56 231.14 1895.52 208.46C1899.72 202.58 1903.08 199.64 1905.6 199.64C1907.84 199.64 1908.96 205.521 1908.96 217.28V240.8C1911.48 253.12 1915.82 259.28 1921.98 259.28C1925.34 259.28 1929.4 258.16 1934.16 255.92C1938.94 253.533 1943.58 249.888 1948.1 244.988C1947.92 243.018 1947.83 240.922 1947.83 238.7C1947.83 230.58 1949.09 220.36 1951.61 208.04H1950.35C1948.39 208.04 1947.41 207.34 1947.41 205.94C1947.41 203.7 1949.93 199.78 1954.97 194.18C1971.49 124.46 1993.61 77.9803 2021.33 54.7402C2027.49 49.7002 2033.93 47.1797 2040.65 47.1797ZM190.212 92.7764C176.496 92.7764 163.944 96.1415 152.558 102.87C141.43 109.34 132.501 118.397 125.772 130.043C119.044 141.43 115.68 154.369 115.68 168.861C115.68 183.354 119.044 196.423 125.772 208.068C132.501 219.455 141.43 228.384 152.558 234.854C163.944 241.323 176.496 244.559 190.212 244.559C204.445 244.559 216.997 241.323 227.866 234.854C238.735 228.384 247.275 219.455 253.486 208.068C259.956 196.423 263.191 183.354 263.191 168.861C263.191 154.369 259.956 141.43 253.486 130.043C247.275 118.397 238.735 109.34 227.866 102.87C216.997 96.1415 204.445 92.7764 190.212 92.7764ZM1484.5 173.6C1478.9 173.6 1472.74 176.96 1466.02 183.68C1462.1 187.6 1458.6 191.52 1455.52 195.44C1452.44 199.08 1449.92 202.86 1447.96 206.78C1451.88 206.5 1456.92 206.36 1463.08 206.36L1484.08 205.94C1487.16 199.781 1489.12 194.88 1489.96 191.24C1490.8 187.6 1491.22 184.66 1491.22 182.42C1491.22 176.54 1488.98 173.6 1484.5 173.6ZM2042.33 53.4805C2037.57 53.4806 2032.11 57.4004 2025.95 65.2402C2022.03 70.0002 2017.55 76.8604 2012.51 85.8203C2007.47 94.5003 2001.87 105.56 1995.71 119C1990.11 131.32 1985.35 142.66 1981.43 153.02C1977.51 163.1 1974.43 172.34 1972.19 180.74C1987.31 166.74 2002.57 149.1 2017.97 127.82C2037.57 100.661 2047.65 79.6603 2048.21 64.8203V63.5596C2048.21 56.8398 2046.25 53.4805 2042.33 53.4805ZM1231.16 99.6797C1219.96 115.08 1214.36 129.64 1214.36 143.36C1214.36 152.6 1217.02 159.88 1222.34 165.2C1227.66 170.52 1234.66 173.18 1243.34 173.18C1266.58 173.18 1288 157.08 1307.6 124.88C1286.88 122.64 1270.22 118.86 1257.62 113.54C1246.98 109.06 1238.16 104.44 1231.16 99.6797ZM1355.9 32.0596C1350.58 32.0596 1345.26 32.4803 1339.94 33.3203C1365.7 47.3203 1378.58 71.1201 1378.58 104.72C1378.58 127.4 1374.52 149.24 1366.4 170.24C1368.64 169.96 1371.02 169.82 1373.54 169.82H1380.68C1399.16 132.581 1408.4 102.76 1408.4 80.3604C1408.4 48.1605 1390.9 32.0597 1355.9 32.0596ZM1720.47 137.06C1722.15 137.06 1722.99 137.62 1722.99 138.74C1722.99 140.42 1721.17 143.22 1717.53 147.14C1713.89 151.06 1710.95 153.44 1708.71 154.28C1708.43 154.28 1708.01 154.42 1707.45 154.7H1706.19C1703.95 154.7 1701.57 154.28 1699.05 153.44C1696.81 152.32 1695.69 151.34 1695.69 150.5C1695.69 149.94 1695.83 149.52 1696.11 149.24C1705.91 141.12 1714.03 137.06 1720.47 137.06ZM1289.96 25.7598C1270.92 25.7598 1253.7 29.8204 1238.3 37.9404C1223.18 46.0604 1215.62 55.72 1215.62 66.9199C1215.62 73.0799 1218.42 79.3803 1224.02 85.8203C1246.98 57.5403 1279.04 38.92 1320.2 29.96C1310.96 27.16 1300.88 25.7598 1289.96 25.7598Z" fill="url(#paint0_linear_1665_13357)"/>
<defs>
<linearGradient id="paint0_linear_1665_13357" x1="-180.5" y1="-75.5" x2="1531.5" y2="429.5" gradientUnits="userSpaceOnUse">
<stop stop-color="#6D307C"/>
<stop offset="0.372872" stop-color="#9A44AF"/>
<stop offset="1" stop-color="#6D307C"/>
</linearGradient>
</defs>
</svg>
