<svg width="1138" height="338" viewBox="0 0 1138 338" fill="none" xmlns="http://www.w3.org/2000/svg">
<path d="M264.744 328.018V276.39C262.415 281.565 256.463 289.07 246.887 298.904C237.571 308.738 225.149 317.667 209.621 325.689C194.094 333.453 175.978 337.335 155.275 337.335C124.22 337.335 97.0469 329.83 73.7556 314.82C50.4644 299.551 32.349 279.236 19.4094 253.875C6.46979 228.254 0 199.917 0 168.862C0 137.807 6.46979 109.598 19.4094 84.2367C32.349 58.6163 50.4644 38.1718 73.7556 22.9031C97.0469 7.63436 124.22 0 155.275 0C175.202 0 192.67 3.23489 207.68 9.70468C222.69 15.9157 234.853 23.4206 244.17 32.2196C253.486 40.7597 259.956 48.6528 263.579 55.899V9.3165H380.812V328.018H264.744ZM115.68 168.862C115.68 183.354 119.044 196.423 125.773 208.069C132.501 219.455 141.43 228.384 152.558 234.853C163.945 241.323 176.496 244.558 190.212 244.558C204.445 244.558 216.997 241.323 227.866 234.853C238.735 228.384 247.275 219.455 253.486 208.069C259.956 196.423 263.191 183.354 263.191 168.862C263.191 154.369 259.956 141.43 253.486 130.043C247.275 118.397 238.735 109.339 227.866 102.87C216.997 96.1411 204.445 92.7768 190.212 92.7768C176.496 92.7768 163.945 96.1411 152.558 102.87C141.43 109.339 132.501 118.397 125.773 130.043C119.044 141.43 115.68 154.369 115.68 168.862Z" fill="url(#paint0_linear_1628_13367)"/>
<path d="M517.029 156.828C517.029 182.189 521.817 202.504 531.392 217.773C540.968 232.783 557.013 240.288 579.528 240.288C602.56 240.288 618.734 232.783 628.051 217.773C637.626 202.504 642.414 182.189 642.414 156.828V9.3165H758.87V169.25C758.87 203.41 751.753 233.171 737.52 258.533C723.545 283.636 703.23 303.045 676.574 316.761C649.919 330.477 617.57 337.335 579.528 337.335C541.744 337.335 509.524 330.477 482.869 316.761C456.213 303.045 435.898 283.636 421.923 258.533C407.949 233.171 400.961 203.41 400.961 169.25V9.3165H517.029V156.828Z" fill="url(#paint1_linear_1628_13367)"/>
<path d="M999.431 0C1021.69 0 1043.43 4.52885 1064.65 13.5865C1085.87 22.6443 1103.34 37.0072 1117.05 56.6754C1130.77 76.0847 1137.63 101.705 1137.63 133.537V328.018H1019.23V152.946C1019.23 130.172 1013.79 113.092 1002.92 101.705C992.056 90.0595 977.822 84.2367 960.224 84.2367C948.579 84.2367 937.58 87.3422 927.228 93.5532C917.135 99.5054 908.854 108.046 902.384 119.174C896.173 130.043 893.068 142.594 893.068 156.828V328.018H775.059V9.3165H893.068V56.2872C896.173 47.7471 902.643 39.2069 912.477 30.6668C922.57 21.8679 935.121 14.6217 950.131 8.92831C965.4 2.9761 981.833 0 999.431 0Z" fill="url(#paint2_linear_1628_13367)"/>
<defs>
<linearGradient id="paint0_linear_1628_13367" x1="-180.5" y1="-75.5" x2="1531.5" y2="429.5" gradientUnits="userSpaceOnUse">
<stop stop-color="#6D307C"/>
<stop offset="0.372872" stop-color="#9A44AF"/>
<stop offset="1" stop-color="#6D307C"/>
</linearGradient>
<linearGradient id="paint1_linear_1628_13367" x1="-180.5" y1="-75.5" x2="1531.5" y2="429.5" gradientUnits="userSpaceOnUse">
<stop stop-color="#6D307C"/>
<stop offset="0.372872" stop-color="#9A44AF"/>
<stop offset="1" stop-color="#6D307C"/>
</linearGradient>
<linearGradient id="paint2_linear_1628_13367" x1="-180.5" y1="-75.5" x2="1531.5" y2="429.5" gradientUnits="userSpaceOnUse">
<stop stop-color="#6D307C"/>
<stop offset="0.372872" stop-color="#9A44AF"/>
<stop offset="1" stop-color="#6D307C"/>
</linearGradient>
</defs>
</svg>
